HIERARCHY
ROOT pelvis
{
	OFFSET 0.000000 0.934615 -0.000000
	CHANNELS 6 Xposition Yposition Zposition Xrotation Yrotation Zrotation
	JOINT spine
	{
		OFFSET 0.000000 0.000000 0.000000
		CHANNELS 6 Xposition Yposition Zposition Xrotation Yrotation Zrotation
		JOINT spine.001
		{
			OFFSET 0.000000 0.306285 0.016052
			CHANNELS 3 Xrotation Yrotation Zrotation
			JOINT neck
			{
				OFFSET 0.000000 0.304419 -0.037378
				CHANNELS 6 Xposition Yposition Zposition Xrotation Yrotation Zrotation
				JOINT face
				{
					OFFSET 0.000000 0.239431 -0.004179
					CHANNELS 6 Xposition Yposition Zposition Xrotation Yrotation Zrotation
					End Site
					{
						OFFSET 0.000000 -0.009389 0.034046
					}
				}
			}
			JOINT shoulder.L
			{
				OFFSET 0.000000 0.304419 -0.037378
				CHANNELS 6 Xposition Yposition Zposition Yrotation Xrotation Zrotation
				JOINT upper_arm.L
				{
					OFFSET 0.191014 0.000000 0.000000
					CHANNELS 6 Xposition Yposition Zposition Xrotation Yrotation Zrotation
					JOINT forearm.L
					{
						OFFSET 0.324055 0.001157 -0.000140
						CHANNELS 6 Xposition Yposition Zposition Xrotation Yrotation Zrotation
						End Site
						{
							OFFSET 0.265980 -0.001592 0.004515
						}
					}
				}
			}
			JOINT shoulder.R
			{
				OFFSET 0.000000 0.304419 -0.037378
				CHANNELS 6 Xposition Yposition Zposition Yrotation Xrotation Zrotation
				JOINT upper_arm.R
				{
					OFFSET -0.191014 0.000000 0.000000
					CHANNELS 6 Xposition Yposition Zposition Xrotation Yrotation Zrotation
					JOINT forearm.R
					{
						OFFSET -0.317080 0.001157 -0.000140
						CHANNELS 6 Xposition Yposition Zposition Xrotation Yrotation Zrotation
						End Site
						{
							OFFSET -0.278224 -0.001593 0.004728
						}
					}
				}
			}
		}
	}
	JOINT pelvis.L
	{
		OFFSET 0.000000 0.000000 0.000000
		CHANNELS 6 Xposition Yposition Zposition Yrotation Xrotation Zrotation
		End Site
		{
			OFFSET 0.115934 0.000000 0.000000
		}
	}
	JOINT pelvis.R
	{
		OFFSET 0.000000 0.000000 0.000000
		CHANNELS 6 Xposition Yposition Zposition Yrotation Xrotation Zrotation
		End Site
		{
			OFFSET -0.115934 0.000000 0.000000
		}
	}
	JOINT thigh.L
	{
		OFFSET 0.115934 0.000000 0.000000
		CHANNELS 6 Xposition Yposition Zposition Xrotation Yrotation Zrotation
		JOINT shin.L
		{
			OFFSET 0.022477 -0.428883 0.000000
			CHANNELS 6 Xposition Yposition Zposition Xrotation Yrotation Zrotation
			JOINT foot.L
			{
				OFFSET 0.022046 -0.420658 0.000000
				CHANNELS 6 Xposition Yposition Zposition Xrotation Yrotation Zrotation
				End Site
				{
					OFFSET 0.018737 -0.080221 0.191039
				}
			}
		}
	}
	JOINT thigh.R
	{
		OFFSET -0.115934 0.000000 0.000000
		CHANNELS 6 Xposition Yposition Zposition Xrotation Yrotation Zrotation
		JOINT shin.R
		{
			OFFSET -0.022068 -0.421084 0.000000
			CHANNELS 6 Xposition Yposition Zposition Xrotation Yrotation Zrotation
			JOINT foot.R
			{
				OFFSET -0.022553 -0.430331 0.000000
				CHANNELS 6 Xposition Yposition Zposition Xrotation Yrotation Zrotation
				End Site
				{
					OFFSET -0.019511 -0.083538 0.198938
				}
			}
		}
	}
}
MOTION
Frames: 11
Frame Time: 0.041667
0.041225 -0.016227 0.047380 -0.000000 2.545250 -0.000000 0.000000 -0.000000 0.000000 -8.443756 0.098523 -0.777488 10.016798 3.950413 -0.485826 0.000000 0.304419 -0.037378 26.187608 25.896838 -11.636551 -0.000000 0.239431 -0.004179 2.525220 0.000002 -0.000005 0.000000 0.304419 -0.037378 -0.126954 -0.001143 -1.033626 0.191014 -0.000000 0.000000 -3.478311 -4.064366 -80.834271 0.324055 0.001157 -0.000140 -2.214148 -17.187039 -15.582511 0.000000 0.304420 -0.037378 -0.133576 -0.001266 -1.087585 -0.191014 0.000000 0.000000 -2.065538 2.363220 81.527392 -0.317080 0.001157 -0.000140 -1.216717 12.458413 12.345599 0.000000 0.000000 0.000000 -0.000042 -0.000001 -0.714030 0.000000 0.000000 0.000000 0.000000 -0.000000 -0.714030 0.115925 -0.001445 -0.000000 7.151097 0.096686 -4.452783 0.022477 -0.428883 0.000000 0.238137 0.022435 4.762975 0.022046 -0.420658 0.000000 -5.776083 2.873419 1.955263 -0.115925 0.001445 0.000000 8.486758 -0.479437 -0.454883 -0.022068 -0.421084 0.000000 -0.377077 0.030201 -3.159027 -0.022553 -0.430331 0.000000 -5.754786 -8.573764 -4.665247 
0.041178 -0.016165 0.047443 -0.000000 2.535229 -0.000000 -0.000000 -0.000000 0.000000 -8.433237 0.099021 -0.781992 10.016787 3.945314 -0.485178 -0.000000 0.304419 -0.037378 26.196975 25.991165 -11.598142 0.000000 0.239431 -0.004179 2.440496 0.000003 -0.000015 0.000000 0.304420 -0.037378 -0.127840 -0.001159 -1.040355 0.191014 0.000000 -0.000000 -3.508789 -4.101141 -80.824798 0.324055 0.001157 -0.000140 -2.205187 -17.180572 -15.524050 0.000000 0.304420 -0.037378 -0.134437 -0.001283 -1.094315 -0.191014 0.000000 -0.000000 -2.068853 2.366819 81.531893 -0.317080 0.001157 -0.000140 -1.220229 12.498205 12.333896 0.000000 0.000000 0.000000 -0.000075 -0.000001 -0.730616 0.000000 0.000000 0.000000 -0.000000 0.000000 -0.730645 0.115925 -0.001478 0.000000 7.156102 0.097801 -4.436022 0.022477 -0.428883 0.000000 0.241353 0.022686 4.736973 0.022046 -0.420658 0.000000 -5.840178 2.885133 1.969392 -0.115925 0.001478 0.000000 8.496223 -0.480012 -0.455397 -0.022068 -0.421084 0.000000 -0.394723 0.031602 -3.156460 -0.022553 -0.430331 0.000000 -5.737546 -8.579069 -4.664444 
0.041144 -0.016039 0.047532 -0.000000 2.507397 -0.000000 -0.000000 -0.000000 0.000000 -8.429498 0.098888 -0.781151 10.016701 3.943178 -0.484945 -0.000000 0.304419 -0.037378 26.234862 26.078151 -11.574300 0.000000 0.239431 -0.004179 2.339049 -0.000013 0.000006 0.000000 0.304419 -0.037378 -0.129746 -0.001197 -1.057292 0.191014 0.000000 0.000000 -3.512382 -4.106236 -80.814088 0.324055 0.001157 -0.000140 -2.199355 -17.208153 -15.452246 0.000000 0.304419 -0.037378 -0.136427 -0.001322 -1.111285 -0.191014 -0.000000 0.000000 -2.081832 2.381504 81.542692 -0.317080 0.001157 -0.000140 -1.222461 12.532899 12.314962 0.000000 0.000000 0.000000 -0.000002 -0.000000 -0.752121 0.000000 0.000000 0.000000 0.000000 0.000000 -0.752092 0.115924 -0.001522 -0.000000 7.171616 0.098769 -4.423952 0.022477 -0.428883 0.000000 0.229861 0.021551 4.713180 0.022046 -0.420658 0.000000 -5.910117 2.913418 1.992268 -0.115924 0.001522 0.000000 8.499499 -0.480303 -0.456798 -0.022068 -0.421084 0.000000 -0.407755 0.032656 -3.157997 -0.022553 -0.430331 0.000000 -5.715780 -8.573398 -4.657552 
0.041168 -0.015835 0.047635 -0.000000 2.459989 -0.000000 0.000000 -0.000000 0.000000 -8.427762 0.097920 -0.773581 10.016960 3.968870 -0.488088 0.000000 0.304419 -0.037378 26.294449 26.129918 -11.557114 -0.000000 0.239431 -0.004179 2.253512 -0.000006 0.000011 0.000000 0.304420 -0.037378 -0.132483 -0.001247 -1.078518 0.191014 0.000000 -0.000000 -3.500904 -4.093673 -80.800305 0.324055 0.001157 -0.000140 -2.194987 -17.237058 -15.389902 0.000000 0.304420 -0.037378 -0.139104 -0.001374 -1.132480 -0.191014 0.000000 -0.000000 -2.087837 2.388832 81.536818 -0.317080 0.001157 -0.000140 -1.226804 12.573907 12.310892 0.000000 0.000000 0.000000 -0.000007 -0.000000 -0.781787 0.000000 0.000000 0.000000 0.000000 -0.000000 -0.781787 0.115924 -0.001582 -0.000000 7.187619 0.099274 -4.419450 0.022477 -0.428883 0.000000 0.225343 0.021084 4.689683 0.022046 -0.420658 0.000000 -5.987573 2.958288 2.024173 -0.115924 0.001582 0.000000 8.492653 -0.480264 -0.461497 -0.022068 -0.421084 0.000000 -0.409644 0.032820 -3.162489 -0.022553 -0.430331 0.000000 -5.700396 -8.548087 -4.642586 
0.041240 -0.015616 0.047737 -0.000000 2.400844 -0.000000 0.000000 -0.000000 0.000000 -8.419395 0.096658 -0.764063 10.017507 4.029955 -0.495630 -0.000000 0.304419 -0.037378 26.351440 26.142568 -11.532307 -0.000000 0.239431 -0.004179 2.195553 0.000000 -0.000001 0.000000 0.304419 -0.037378 -0.134277 -0.001283 -1.093785 0.191014 -0.000000 -0.000000 -3.511769 -4.107903 -80.780948 0.324055 0.001157 -0.000140 -2.187309 -17.235508 -15.335728 0.000000 0.304419 -0.037378 -0.140913 -0.001411 -1.147814 -0.191014 0.000000 -0.000000 -2.099671 2.403740 81.510931 -0.317080 0.001157 -0.000140 -1.226734 12.582827 12.299377 0.000000 0.000000 -0.000000 0.000020 0.000000 -0.815519 0.000000 0.000000 -0.000000 0.000000 -0.000000 -0.815519 0.115923 -0.001650 -0.000000 7.188371 0.099493 -4.416098 0.022477 -0.428883 0.000000 0.256409 0.023918 4.657189 0.022046 -0.420658 0.000000 -6.074557 3.010390 2.060899 -0.115923 0.001650 0.000000 8.475275 -0.479816 -0.468738 -0.022068 -0.421084 0.000000 -0.394919 0.031662 -3.168497 -0.022553 -0.430331 0.000000 -5.704648 -8.504355 -4.622689 
0.041294 -0.015453 0.047842 -0.000000 2.341045 -0.000000 -0.000000 -0.000000 -0.000000 -8.398956 0.096030 -0.760193 10.018103 4.102523 -0.504597 -0.000000 0.304419 -0.037378 26.375194 26.133793 -11.498644 -0.000000 0.239431 -0.004179 2.156066 0.000006 -0.000011 -0.000000 0.304419 -0.037378 -0.134820 -0.001292 -1.098481 0.191014 0.000000 -0.000000 -3.561904 -4.168956 -80.757302 0.324055 0.001157 -0.000140 -2.173632 -17.204546 -15.268642 0.000000 0.304419 -0.037378 -0.141483 -0.001423 -1.152474 -0.191014 0.000000 0.000000 -2.162998 2.478809 81.487825 -0.317080 0.001157 -0.000140 -1.207798 12.470950 12.234848 0.000000 0.000000 -0.000000 -0.000006 -0.000000 -0.843919 0.000000 0.000000 -0.000000 -0.000000 -0.000000 -0.843919 0.115922 -0.001707 -0.000000 7.170660 0.100066 -4.403044 0.022477 -0.428883 0.000000 0.325088 0.030182 4.607230 0.022046 -0.420658 0.000000 -6.166549 3.060120 2.097283 -0.115922 0.001708 -0.000000 8.448821 -0.478430 -0.470318 -0.022068 -0.421084 0.000000 -0.359506 0.028869 -3.183469 -0.022553 -0.430331 0.000000 -5.729590 -8.452401 -4.602829 
0.041297 -0.015358 0.048041 -0.000000 2.273392 -0.000000 0.000000 -0.000000 0.000000 -8.371287 0.096139 -0.762565 10.018580 4.162599 -0.512021 -0.000000 0.304419 -0.037378 26.346526 26.126739 -11.473529 -0.000000 0.239431 -0.004179 2.134906 0.000008 -0.000000 -0.000000 0.304419 -0.037378 -0.135089 -0.001297 -1.100389 0.191014 -0.000000 0.000000 -3.617623 -4.237044 -80.730056 0.324055 0.001157 -0.000140 -2.157042 -17.163121 -15.191031 0.000000 0.304419 -0.037378 -0.141717 -0.001428 -1.154385 -0.191014 0.000000 -0.000000 -2.300973 2.640060 81.488952 -0.317080 0.001157 -0.000140 -1.165516 12.194154 12.119160 0.000000 0.000000 0.000000 0.000079 0.000000 -0.859032 0.000000 0.000000 0.000000 0.000000 -0.000000 -0.859032 0.115921 -0.001738 -0.000000 7.156338 0.101230 -4.381308 0.022477 -0.428883 0.000000 0.400244 0.036938 4.545450 0.022046 -0.420658 0.000000 -6.258467 3.117913 2.137640 -0.115921 0.001738 -0.000000 8.418632 -0.476070 -0.461556 -0.022068 -0.421084 0.000000 -0.307062 0.024747 -3.216697 -0.022553 -0.430331 0.000000 -5.764128 -8.389419 -4.579555 
0.041305 -0.015304 0.048486 -0.000000 2.169281 -0.000000 -0.000000 -0.000000 0.000000 -8.349263 0.095943 -0.762166 10.019099 4.213305 -0.518272 -0.000000 0.304419 -0.037378 26.270274 26.145083 -11.479414 0.000000 0.239431 -0.004179 2.151525 0.000016 -0.000006 0.000000 0.304419 -0.037378 -0.136864 -0.001333 -1.114880 0.191014 -0.000000 -0.000000 -3.627057 -4.251133 -80.691349 0.324055 0.001157 -0.000140 -2.142570 -17.108545 -15.142254 0.000000 0.304419 -0.037378 -0.143485 -0.001466 -1.168910 -0.191014 0.000000 0.000000 -2.472125 2.839046 81.512413 -0.317080 0.001157 -0.000140 -1.115507 11.831141 12.019111 0.000000 0.000000 0.000000 -0.000070 -0.000000 -0.859120 0.000000 0.000000 0.000000 0.000000 -0.000000 -0.859150 0.115921 -0.001738 -0.000000 7.179242 0.102422 -4.367396 0.022477 -0.428883 0.000000 0.445443 0.040895 4.490062 0.022046 -0.420658 0.000000 -6.355742 3.213277 2.197016 -0.115921 0.001738 0.000000 8.394571 -0.474095 -0.453320 -0.022068 -0.421084 0.000000 -0.252863 0.020485 -3.262875 -0.022553 -0.430331 0.000000 -5.796462 -8.292478 -4.539665 
0.041371 -0.015294 0.049209 -0.000000 2.015864 -0.000000 0.000000 -0.000000 0.000000 -8.340211 0.094694 -0.752729 10.019537 4.264129 -0.524543 -0.000000 0.304419 -0.037378 26.172394 26.206017 -11.523508 0.000000 0.239431 -0.004179 2.215661 0.000002 0.000001 0.000000 0.304420 -0.037378 -0.141040 -0.001416 -1.148572 0.191014 0.000000 -0.000000 -3.576211 -4.195525 -80.630868 0.324055 0.001157 -0.000140 -2.132597 -17.022950 -15.158847 -0.000000 0.304420 -0.037378 -0.147665 -0.001552 -1.202530 -0.191014 -0.000000 -0.000000 -2.607170 2.995130 81.542760 -0.317080 0.001157 -0.000140 -1.079896 11.534087 11.993568 0.000000 0.000000 0.000000 -0.000004 -0.000000 -0.851166 0.000000 0.000000 0.000000 0.000000 0.000000 -0.851195 0.115922 -0.001722 -0.000000 7.250319 0.103198 -4.371233 0.022477 -0.428883 0.000000 0.450394 0.041197 4.451694 0.022046 -0.420658 0.000000 -6.465179 3.356424 2.281483 -0.115922 0.001722 0.000000 8.383662 -0.473950 -0.459785 -0.022068 -0.421084 0.000000 -0.212633 0.017302 -3.305356 -0.022553 -0.430331 0.000000 -5.821004 -8.150989 -4.477080 
0.041418 -0.015395 0.050031 -0.000000 1.852233 -0.000000 0.000000 -0.000000 0.000000 -8.337048 0.093557 -0.743852 10.019883 4.301963 -0.529217 -0.000000 0.304420 -0.037378 26.073778 26.296317 -11.582171 -0.000000 0.239431 -0.004179 2.305553 0.000020 0.000008 0.000000 0.304419 -0.037378 -0.145546 -0.001505 -1.185298 0.191014 -0.000000 -0.000000 -3.502309 -4.112975 -80.559616 0.324055 0.001157 -0.000140 -2.126411 -16.914315 -15.228228 0.000000 0.304419 -0.037378 -0.152170 -0.001643 -1.239329 -0.191014 0.000000 -0.000000 -2.669746 3.067091 81.564521 -0.317080 0.001157 -0.000140 -1.068429 11.406273 12.027921 0.000000 0.000000 -0.000000 0.000009 0.000000 -0.848014 0.000000 0.000000 -0.000000 0.000000 -0.000000 -0.848043 0.115922 -0.001716 -0.000000 7.340792 0.104184 -4.376033 0.022477 -0.428883 0.000000 0.435136 0.039675 4.418826 0.022046 -0.420658 0.000000 -6.573076 3.505674 2.368997 -0.115922 0.001716 -0.000000 8.383415 -0.474870 -0.472481 -0.022068 -0.421084 0.000000 -0.184206 0.015047 -3.340399 -0.022553 -0.430331 0.000000 -5.840900 -7.998767 -4.408429 
0.041303 -0.015672 0.050760 -0.000000 1.742988 -0.000000 -0.000000 -0.000000 0.000000 -8.327877 0.094880 -0.754864 10.019834 4.301051 -0.529109 -0.000000 0.304419 -0.037378 25.967636 26.373973 -11.611382 -0.000000 0.239431 -0.004179 2.390372 -0.000006 0.000007 0.000000 0.304419 -0.037378 -0.146986 -0.001533 -1.197204 0.191014 0.000000 -0.000000 -3.450116 -4.053978 -80.517890 0.324055 0.001157 -0.000140 -2.119940 -16.813634 -15.287872 0.000000 0.304419 -0.037378 -0.153619 -0.001674 -1.251197 -0.191014 0.000000 -0.000000 -2.665292 3.062138 81.561741 -0.317080 0.001157 -0.000140 -1.076049 11.443282 12.068937 0.000000 0.000000 0.000000 -0.000026 -0.000000 -0.860269 -0.000000 0.000000 0.000000 0.000000 -0.000000 -0.860240 0.115921 -0.001741 -0.000000 7.413269 0.106618 -4.354357 0.022477 -0.428883 0.000000 0.421936 0.038297 4.372062 0.022046 -0.420658 0.000000 -6.649226 3.597018 2.424166 -0.115921 0.001741 0.000000 8.390519 -0.474593 -0.463168 -0.022068 -0.421084 0.000000 -0.153798 0.012621 -3.383460 -0.022553 -0.430331 0.000000 -5.866682 -7.890840 -4.361874 
